<svg width="44" height="49" viewBox="0 0 44 49" fill="none" xmlns="http://www.w3.org/2000/svg">
<path d="M32.9649 20.224C32.4112 20.2225 31.8626 20.331 31.351 20.5432C30.8393 20.7555 30.3748 21.0673 29.9843 21.4607L28.6855 22.7621L27.3868 21.4611C26.9954 21.0689 26.5307 20.7578 26.0193 20.5456C25.5078 20.3333 24.9597 20.2241 24.4061 20.224C23.8525 20.224 23.3043 20.3332 22.7929 20.5455C22.2814 20.7577 21.8167 21.0687 21.4252 21.4609C21.0338 21.853 20.7232 22.3186 20.5114 22.8309C20.2995 23.3433 20.1904 23.8924 20.1904 24.447C20.1904 25.0016 20.2994 25.5508 20.5113 26.0632C20.7231 26.5755 21.0336 27.0411 21.425 27.4333L27.9344 33.9545C28.033 34.0533 28.15 34.1317 28.2789 34.1852C28.4077 34.2386 28.5458 34.2661 28.6852 34.2661C28.8247 34.2661 28.9628 34.2386 29.0916 34.1852C29.2204 34.1317 29.3375 34.0533 29.4361 33.9545L35.946 27.4333C36.5355 26.8427 36.937 26.0901 37.0997 25.2709C37.2623 24.4517 37.1788 23.6026 36.8597 22.8309C36.5406 22.0592 36.0003 21.3996 35.307 20.9356C34.6138 20.4716 33.7987 20.224 32.9649 20.224ZM34.4441 25.9286L28.6855 31.6979L22.9269 25.9286C22.5435 25.5338 22.3307 25.0037 22.3344 24.4529C22.3382 23.9021 22.5583 23.3749 22.9471 22.9855C23.3359 22.596 23.8621 22.3756 24.4118 22.3718C24.9616 22.368 25.4908 22.5813 25.8848 22.9654L27.9344 25.0186C28.033 25.1174 28.15 25.1958 28.2789 25.2492C28.4077 25.3027 28.5458 25.3302 28.6852 25.3302C28.8247 25.3302 28.9628 25.3027 29.0916 25.2492C29.2204 25.1958 29.3375 25.1174 29.4361 25.0186L31.4862 22.9653C31.88 22.58 32.4095 22.3658 32.96 22.3691C33.5104 22.3724 34.0373 22.5929 34.4265 22.9829C34.8158 23.3728 35.0359 23.9007 35.0392 24.4521C35.0424 25.0035 34.8286 25.534 34.4441 25.9286Z" fill="url(#paint0_linear_33_151)"/>
<path fill-rule="evenodd" clip-rule="evenodd" d="M11.6956 23.8409V20.7384C10.8165 20.894 9.98624 21.2544 9.27171 21.7905C8.55719 22.3266 7.97842 23.0234 7.58209 23.8247L7.3364 24.3167C7.32008 24.3494 7.30209 24.3812 7.28251 24.4121L6.4309 25.7526C4.44782 28.8698 3.16515 32.3818 2.67178 36.0451C2.17842 39.7085 2.48616 43.4354 3.57369 46.9677L3.58279 46.9973C3.78658 47.6611 3.30923 48.3388 2.61559 48.3704C2.13157 48.3924 1.69395 48.0842 1.55171 47.621L1.54302 47.5927C0.36483 43.7661 0.0314226 39.7285 0.565906 35.7599C1.10039 31.7913 2.48998 27.9867 4.63834 24.6097L5.46049 23.3156L5.68176 22.8722C6.1162 21.9997 6.70801 21.2153 7.42732 20.5585L6.48187 20.6447C6.29155 20.662 6.10009 20.6275 5.92769 20.5449C5.75528 20.4624 5.60832 20.3347 5.5023 20.1754L3.37858 16.984L2.58948 15.7985C2.33893 15.4219 2.17116 14.9964 2.09732 14.5499C2.02348 14.1035 2.04525 13.6465 2.16118 13.2091C2.27712 12.7718 2.48457 12.3641 2.76977 12.0132C3.05497 11.6623 3.41139 11.3762 3.8154 11.1738L9.79753 8.17738L10.9493 5.29519C11.2638 4.50535 11.7468 3.79388 12.3645 3.21049C12.9821 2.62711 13.7194 2.18589 14.5249 1.91768L17.0469 1.07556C18.3668 0.635289 19.7785 0.547249 21.1427 0.820118C23.6008 1.30895 25.9263 2.31823 27.9635 3.78036C28.1353 3.90365 28.3059 4.02865 28.4753 4.15535C28.5101 4.17468 28.5438 4.19594 28.5763 4.21904C28.8548 4.4188 29.1234 4.63222 29.3809 4.85851C31.8831 6.86973 34.0615 9.25466 35.8397 11.9296C39.4821 17.4167 41.7841 23.6857 42.5597 30.2294C43.2328 35.9018 42.7312 41.6523 41.0864 47.1218L40.9523 47.5695C40.8179 48.0182 40.4055 48.3259 39.9371 48.327C39.225 48.3285 38.7132 47.6427 38.9172 46.9605L39.0518 46.5104C40.6132 41.3194 41.0895 35.8616 40.4508 30.4779C39.7144 24.2675 37.5293 18.3178 34.0722 13.1103C33.6839 12.528 33.2772 11.9618 32.8519 11.4115C32.9056 11.8394 32.9327 12.2702 32.9328 12.7014C32.9328 14.1121 32.3735 15.4649 31.3778 16.4624C30.3821 17.4599 29.0317 18.0203 27.6235 18.0203C26.2154 18.0203 24.865 17.4599 23.8693 16.4624C22.8736 15.4649 22.3142 14.1121 22.3142 12.7014V10.4771C22.3144 8.97297 21.9063 7.49706 21.1338 6.20725L20.0523 4.40135C19.7183 3.84572 19.3366 3.32026 18.9116 2.83094C18.5056 2.87632 18.1055 2.96407 17.7177 3.09276L15.1958 3.93501C14.6832 4.10571 14.214 4.38652 13.8209 4.7578C13.4279 5.12908 13.1206 5.58187 12.9205 6.08452L11.6197 9.34236C11.5231 9.58424 11.3413 9.78221 11.1087 9.89871L7.68177 11.6153C7.9479 12.5302 7.91613 13.5062 7.59109 14.4018C7.26604 15.2974 6.66463 16.066 5.87409 16.596L5.73511 16.6891L6.91936 18.4688L17.3815 17.5163L18.1789 15.9187C18.3062 15.6686 18.527 15.4791 18.7931 15.3913C19.0593 15.3036 19.3493 15.3249 19.5999 15.4504C19.8505 15.576 20.0414 15.7956 20.131 16.0616C20.2206 16.3275 20.2017 16.6182 20.0783 16.8702L19.0165 18.9978C18.9356 19.1598 18.8147 19.2985 18.6653 19.4007C18.5159 19.5028 18.343 19.565 18.1629 19.5814L13.8193 19.977V23.1835L16.9328 24.7429C17.9111 25.2291 18.7647 25.9342 19.4275 26.8036C20.0904 27.6731 20.5448 28.6836 20.7555 29.757L21.1699 31.833C21.8232 32.5423 22.2161 33.4531 22.2839 34.4157C22.3518 35.3784 22.0907 36.3355 21.5434 37.1297L22.9317 38.8682C25.0313 39.4857 26.8986 40.7182 28.2934 42.4073C29.4314 43.7853 30.2124 45.4158 30.5767 47.1544C30.7085 47.7835 30.1952 48.3365 29.5525 48.3248C29.0176 48.3152 28.5781 47.9116 28.4566 47.3906C28.1362 46.0178 27.4919 44.7368 26.5722 43.6578C25.4504 42.3416 23.968 41.3838 22.3085 40.9028L22.0227 40.8209C21.8107 40.7603 21.6228 40.635 21.485 40.4626L20.1638 38.8068C19.5144 39.458 18.7432 39.9746 17.8944 40.3271C17.0456 40.6796 16.1357 40.8612 15.2169 40.8613C14.298 40.8615 13.3881 40.6803 12.5392 40.3281C11.6902 39.9759 10.9188 39.4596 10.2691 38.8086L9.88328 38.4221C9.68413 38.2226 9.57226 37.952 9.57226 37.6699C9.57226 37.3877 9.68413 37.1171 9.88328 36.9176C10.0824 36.7181 10.3525 36.606 10.6341 36.606C10.9158 36.606 11.1859 36.7181 11.385 36.9176L11.7709 37.3042C12.2553 37.7895 12.8365 38.167 13.4764 38.4121C14.1164 38.6571 14.8008 38.7641 15.4849 38.7262C16.1689 38.6882 16.8373 38.5062 17.4464 38.1918C18.0554 37.8775 18.5914 37.438 19.0194 36.9021L19.3617 36.4734L19.704 36.0447C20.031 35.636 20.1958 35.1209 20.1669 34.5979C20.138 34.075 19.9174 33.5812 19.5474 33.2113L19.4398 33.1034C19.2915 32.9549 19.1905 32.7658 19.1493 32.5598L18.6731 30.1744C18.5248 29.419 18.2051 28.7078 17.7386 28.096C17.2721 27.4841 16.6714 26.988 15.9829 26.6459L12.2826 24.7924C12.1062 24.704 11.9579 24.5682 11.8542 24.4002C11.7505 24.2321 11.6956 24.0385 11.6956 23.8409ZM4.19277 14.2021C4.21738 14.351 4.2733 14.4928 4.35682 14.6183L4.55778 14.9192L4.69661 14.8262C5.05557 14.5852 5.34118 14.2497 5.52196 13.8566C5.70274 13.4635 5.77168 13.028 5.72118 12.5981L4.7655 13.0768C4.63083 13.1442 4.51202 13.2396 4.41694 13.3566C4.32187 13.4735 4.25272 13.6094 4.21407 13.7552C4.17542 13.901 4.16816 14.0533 4.19277 14.2021ZM30.0756 9.29323C29.5935 8.22204 28.8903 7.2654 28.0122 6.48636C27.5945 6.15003 27.1667 5.82527 26.7287 5.51207C25.2314 4.43801 23.5548 3.64034 21.7777 3.15659C21.7914 3.17877 21.8056 3.2007 21.8197 3.22263C21.838 3.25105 21.8563 3.27947 21.8737 3.30844L22.9552 5.11435C23.9253 6.73435 24.4378 8.58798 24.438 10.4771V12.7009C24.4359 13.294 24.5998 13.8758 24.9111 14.3803C25.2223 14.8848 25.6685 15.2918 26.1989 15.5553C26.6416 15.7756 27.1292 15.8903 27.6236 15.8903C28.118 15.8903 28.6056 15.7756 29.0483 15.5553C29.5787 15.2918 30.0248 14.8848 30.336 14.3802C30.6473 13.8757 30.8112 13.2939 30.8091 12.7009C30.8077 11.5258 30.5577 10.3644 30.0756 9.29323Z" fill="url(#paint1_linear_33_151)" stroke="url(#paint2_linear_33_151)" stroke-width="0.5"/>
<path d="M14.8812 32.7501C15.6876 32.7501 16.3413 32.0952 16.3413 31.2874C16.3413 30.4796 15.6876 29.8247 14.8812 29.8247C14.0748 29.8247 13.4211 30.4796 13.4211 31.2874C13.4211 32.0952 14.0748 32.7501 14.8812 32.7501Z" fill="url(#paint3_linear_33_151)"/>
<path d="M15.5448 11.0756C16.3511 11.0756 17.0048 10.4207 17.0048 9.61285C17.0048 8.80502 16.3511 8.15015 15.5448 8.15015C14.7384 8.15015 14.0847 8.80502 14.0847 9.61285C14.0847 10.4207 14.7384 11.0756 15.5448 11.0756Z" fill="url(#paint4_linear_33_151)"/>
<defs>
<linearGradient id="paint0_linear_33_151" x1="28.6855" y1="20.224" x2="28.6855" y2="34.2661" gradientUnits="userSpaceOnUse">
<stop stop-color="#0243FF"/>
<stop offset="1" stop-color="#0F3DC2"/>
</linearGradient>
<linearGradient id="paint1_linear_33_151" x1="21.584" y1="0.664917" x2="21.584" y2="48.4078" gradientUnits="userSpaceOnUse">
<stop stop-color="#0243FF"/>
<stop offset="1" stop-color="#0F3DC2"/>
</linearGradient>
<linearGradient id="paint2_linear_33_151" x1="21.584" y1="0.664917" x2="21.584" y2="48.4078" gradientUnits="userSpaceOnUse">
<stop stop-color="#0243FF"/>
<stop offset="1" stop-color="#0F3DC2"/>
</linearGradient>
<linearGradient id="paint3_linear_33_151" x1="14.8812" y1="29.8247" x2="14.8812" y2="32.7501" gradientUnits="userSpaceOnUse">
<stop stop-color="#0243FF"/>
<stop offset="1" stop-color="#0F3DC2"/>
</linearGradient>
<linearGradient id="paint4_linear_33_151" x1="15.5448" y1="8.15015" x2="15.5448" y2="11.0756" gradientUnits="userSpaceOnUse">
<stop stop-color="#0243FF"/>
<stop offset="1" stop-color="#0F3DC2"/>
</linearGradient>
</defs>
</svg>
