<svg width="130" height="85" viewBox="0 0 130 85" fill="none" xmlns="http://www.w3.org/2000/svg">
<path d="M75.9764 24.224C75.4226 24.2225 74.8741 24.331 74.3624 24.5432C73.8508 24.7555 73.3863 25.0673 72.9958 25.4607L71.697 26.7621L70.3983 25.4611C70.0069 25.0689 69.5422 24.7578 69.0307 24.5456C68.5193 24.3333 67.9711 24.2241 67.4175 24.224C66.864 24.224 66.3158 24.3332 65.8043 24.5455C65.2929 24.7577 64.8282 25.0687 64.4367 25.4609C64.0452 25.853 63.7347 26.3186 63.5228 26.8309C63.311 27.3433 63.2019 27.8924 63.2019 28.447C63.2019 29.0016 63.3109 29.5508 63.5227 30.0632C63.7346 30.5755 64.0451 31.0411 64.4365 31.4333L70.9458 37.9545C71.0444 38.0533 71.1615 38.1317 71.2903 38.1852C71.4192 38.2386 71.5573 38.2661 71.6967 38.2661C71.8362 38.2661 71.9742 38.2386 72.1031 38.1852C72.2319 38.1317 72.349 38.0533 72.4476 37.9545L78.9575 31.4333C79.547 30.8427 79.9485 30.0901 80.1111 29.2709C80.2738 28.4517 80.1903 27.6026 79.8712 26.8309C79.5521 26.0592 79.0118 25.3996 78.3185 24.9356C77.6252 24.4716 76.8102 24.224 75.9764 24.224ZM77.4556 29.9286L71.697 35.6979L65.9384 29.9286C65.555 29.5338 65.3421 29.0037 65.3459 28.4529C65.3497 27.9021 65.5698 27.3749 65.9586 26.9855C66.3473 26.596 66.8735 26.3756 67.4233 26.3718C67.9731 26.368 68.5023 26.5813 68.8963 26.9654L70.9458 29.0186C71.0444 29.1174 71.1615 29.1958 71.2903 29.2492C71.4192 29.3027 71.5573 29.3302 71.6967 29.3302C71.8362 29.3302 71.9742 29.3027 72.1031 29.2492C72.2319 29.1958 72.349 29.1174 72.4476 29.0186L74.4976 26.9653C74.8915 26.58 75.421 26.3658 75.9714 26.3691C76.5219 26.3724 77.0488 26.5929 77.438 26.9829C77.8272 27.3728 78.0473 27.9007 78.0506 28.4521C78.0539 29.0035 77.8401 29.534 77.4556 29.9286Z" fill="url(#paint0_linear_31_17)"/>
<path fill-rule="evenodd" clip-rule="evenodd" d="M54.7071 27.8409V24.7383C53.828 24.8939 52.9977 25.2543 52.2832 25.7904C51.5687 26.3265 50.9899 27.0233 50.5936 27.8247L50.3479 28.3167C50.3316 28.3493 50.3136 28.3812 50.294 28.412L49.4424 29.7525C47.4593 32.8698 46.1766 36.3818 45.6833 40.0451C45.1899 43.7084 45.4976 47.4354 46.5852 50.9677L46.5943 50.9973C46.7981 51.6611 46.3207 52.3387 45.6271 52.3703V52.3703C45.143 52.3924 44.7054 52.0841 44.5632 51.6209L44.5545 51.5926C43.3763 47.766 43.0429 43.7284 43.5774 39.7599C44.1119 35.7913 45.5015 31.9866 47.6498 28.6096L48.472 27.3155L48.6932 26.8722C49.1277 25.9997 49.7195 25.2152 50.4388 24.5584L49.4933 24.6446C49.303 24.6619 49.1116 24.6275 48.9392 24.5449C48.7668 24.4623 48.6198 24.3346 48.5138 24.1753L46.3901 20.984L45.601 19.7984C45.3504 19.4219 45.1826 18.9963 45.1088 18.5499C45.035 18.1035 45.0567 17.6464 45.1727 17.209C45.2886 16.7717 45.496 16.364 45.7812 16.0131C46.0664 15.6622 46.4229 15.3761 46.8269 15.1737L52.809 12.1773L53.9607 9.29513C54.2753 8.50529 54.7583 7.79382 55.3759 7.21043C55.9935 6.62705 56.7309 6.18583 57.5364 5.91762L60.0583 5.0755C61.3783 4.63523 62.79 4.54719 64.1542 4.82006C66.6123 5.30889 68.9378 6.31816 70.9749 7.7803C71.1468 7.90359 71.3174 8.02859 71.4868 8.15528C71.5216 8.17462 71.5553 8.19588 71.5878 8.21898C71.8663 8.41874 72.1348 8.63216 72.3924 8.85845C74.8946 10.8697 77.073 13.2546 78.8512 15.9296C82.4935 21.4167 84.7956 27.6856 85.5712 34.2293C86.2443 39.9017 85.7427 45.6523 84.0978 51.1218L83.9638 51.5695C83.8294 52.0182 83.417 52.3259 82.9486 52.3269V52.3269C82.2365 52.3284 81.7247 51.6426 81.9287 50.9604L82.0633 50.5104C83.6247 45.3193 84.101 39.8615 83.4623 34.4778C82.7259 28.2674 80.5408 22.3178 77.0837 17.1102C76.6954 16.528 76.2886 15.9617 75.8634 15.4115C75.9171 15.8393 75.9441 16.2701 75.9443 16.7013C75.9443 18.112 75.3849 19.4649 74.3893 20.4624C73.3936 21.4599 72.0431 22.0202 70.635 22.0202C69.2269 22.0202 67.8765 21.4599 66.8808 20.4624C65.8851 19.4649 65.3257 18.112 65.3257 16.7013V14.4771C65.3258 12.9729 64.9178 11.497 64.1453 10.2072L63.0638 8.40129C62.7298 7.84566 62.3481 7.3202 61.9231 6.83087C61.5171 6.87626 61.117 6.96401 60.7292 7.0927L58.2072 7.93495C57.6946 8.10565 57.2254 8.38646 56.8324 8.75774C56.4394 9.12901 56.1321 9.58181 55.9319 10.0845L54.6312 13.3423C54.5346 13.5842 54.3527 13.7821 54.1201 13.8987L50.6932 15.6152C50.9594 16.5301 50.9276 17.5062 50.6026 18.4018C50.2775 19.2974 49.6761 20.0659 48.8856 20.596L48.7466 20.6891L49.9308 22.4688L60.393 21.5163L61.1904 19.9186C61.3177 19.6685 61.5384 19.479 61.8046 19.3913C62.0708 19.3036 62.3607 19.3248 62.6113 19.4504C62.8619 19.5759 63.0529 19.7956 63.1425 20.0615C63.2321 20.3275 63.2132 20.6181 63.0898 20.8702L62.028 22.9977C61.9471 23.1598 61.8262 23.2985 61.6768 23.4006C61.5274 23.5027 61.3545 23.5649 61.1744 23.5814L56.8308 23.9769V27.1835L59.9443 28.7428C60.9226 29.229 61.7762 29.9341 62.439 30.8036C63.1019 31.673 63.5562 32.6835 63.767 33.757L64.1814 35.833C64.8347 36.5422 65.2275 37.453 65.2954 38.4157C65.3633 39.3783 65.1022 40.3355 64.5549 41.1297L65.9432 42.8682C68.0428 43.4856 69.91 44.7182 71.3049 46.4072C72.4428 47.7853 73.2239 49.4158 73.5882 51.1544C73.72 51.7835 73.2066 52.3364 72.564 52.3248V52.3248C72.0291 52.3151 71.5896 51.9115 71.468 51.3905C71.1476 50.0177 70.5033 48.7367 69.5837 47.6577C68.4618 46.3416 66.9795 45.3838 65.32 44.9028L65.0342 44.8209C64.8222 44.7602 64.6343 44.635 64.4965 44.4625L63.1753 42.8067C62.5258 43.4579 61.7547 43.9745 60.9058 44.327C60.057 44.6796 59.1472 44.8611 58.2283 44.8613C57.3095 44.8615 56.3996 44.6803 55.5506 44.328C54.7017 43.9758 53.9303 43.4595 53.2806 42.8086L52.8948 42.422C52.6956 42.2225 52.5837 41.9519 52.5837 41.6698C52.5837 41.3877 52.6956 41.1171 52.8948 40.9176C53.0939 40.7181 53.364 40.606 53.6456 40.606C53.9273 40.606 54.1973 40.7181 54.3965 40.9176L54.7823 41.3041C55.2668 41.7895 55.848 42.167 56.4879 42.412C57.1279 42.657 57.8123 42.7641 58.4963 42.7261C59.1804 42.6882 59.8488 42.5061 60.4578 42.1918C61.0669 41.8775 61.6029 41.438 62.0309 40.902L62.3732 40.4733L62.7155 40.0446C63.0425 39.636 63.2073 39.1208 63.1784 38.5979C63.1495 38.075 62.9289 37.5812 62.5589 37.2112L62.4512 37.1034C62.303 36.9549 62.2019 36.7657 62.1608 36.5598L61.6846 34.1744C61.5363 33.4189 61.2165 32.7078 60.75 32.0959C60.2836 31.4841 59.6828 30.9879 58.9944 30.6458L55.294 28.7923C55.1177 28.7039 54.9693 28.5681 54.8657 28.4001C54.762 28.2321 54.7071 28.0384 54.7071 27.8409ZM47.2042 18.2021C47.2289 18.3509 47.2848 18.4928 47.3683 18.6183L47.5692 18.9192L47.7081 18.8261C48.067 18.5852 48.3527 18.2497 48.5334 17.8565C48.7142 17.4634 48.7832 17.0279 48.7327 16.598L47.777 17.0767C47.6423 17.1442 47.5235 17.2395 47.4284 17.3565C47.3333 17.4735 47.2642 17.6094 47.2255 17.7551C47.1869 17.9009 47.1796 18.0533 47.2042 18.2021ZM73.0871 13.2932C72.605 12.222 71.9017 11.2653 71.0237 10.4863C70.606 10.15 70.1781 9.8252 69.7401 9.51201C68.2429 8.43795 66.5663 7.64028 64.7892 7.15653C64.8029 7.17871 64.817 7.20064 64.8312 7.22257C64.8495 7.25099 64.8678 7.27941 64.8852 7.30838L65.9667 9.11429C66.9368 10.7343 67.4493 12.5879 67.4494 14.4771V16.7008C67.4474 17.2939 67.6113 17.8757 67.9225 18.3802C68.2338 18.8847 68.68 19.2918 69.2104 19.5552C69.6531 19.7756 70.1407 19.8903 70.6351 19.8903C71.1294 19.8903 71.6171 19.7756 72.0598 19.5552C72.5902 19.2918 73.0363 18.8847 73.3475 18.3802C73.6587 17.8757 73.8226 17.2939 73.8206 16.7008C73.8192 15.5258 73.5692 14.3644 73.0871 13.2932Z" fill="url(#paint1_linear_31_17)" stroke="url(#paint2_linear_31_17)" stroke-width="0.5"/>
<path d="M57.8927 36.7501C58.699 36.7501 59.3527 36.0952 59.3527 35.2873C59.3527 34.4795 58.699 33.8246 57.8927 33.8246C57.0863 33.8246 56.4326 34.4795 56.4326 35.2873C56.4326 36.0952 57.0863 36.7501 57.8927 36.7501Z" fill="url(#paint3_linear_31_17)"/>
<path d="M58.5563 15.0755C59.3626 15.0755 60.0163 14.4206 60.0163 13.6128C60.0163 12.8049 59.3626 12.1501 58.5563 12.1501C57.7499 12.1501 57.0962 12.8049 57.0962 13.6128C57.0962 14.4206 57.7499 15.0755 58.5563 15.0755Z" fill="url(#paint4_linear_31_17)"/>
<path d="M18.76 62.352L7 81.712V82.24H24.296V79.072H12.808L24.504 59.744V59.2H7.64V62.352H18.76Z" fill="url(#paint5_linear_31_17)"/>
<path fill-rule="evenodd" clip-rule="evenodd" d="M32.0068 81.552C33.2761 82.3307 34.7747 82.72 36.5028 82.72C38.2201 82.72 39.7134 82.336 40.9827 81.568C42.2521 80.7893 43.2334 79.7173 43.9268 78.352C44.6307 76.976 44.9827 75.3867 44.9827 73.584C44.9827 71.8027 44.6361 70.2293 43.9427 68.864C43.2494 67.4987 42.2681 66.4267 40.9987 65.648C39.7294 64.8693 38.2308 64.48 36.5028 64.48C34.8068 64.48 33.3241 64.864 32.0548 65.632C30.7854 66.3893 29.7987 67.456 29.0947 68.832C28.3907 70.1973 28.0387 71.7813 28.0387 73.584C28.0387 75.376 28.3801 76.96 29.0627 78.336C29.7561 79.7013 30.7374 80.7733 32.0068 81.552ZM40.1987 77.904C39.3881 79.0133 38.1561 79.568 36.5028 79.568C34.8921 79.568 33.6707 79.024 32.8387 77.936C32.0067 76.848 31.5907 75.3973 31.5907 73.584C31.5907 72.4107 31.7668 71.3813 32.1187 70.496C32.4707 69.6 33.0094 68.9013 33.7347 68.4C34.4601 67.888 35.3827 67.632 36.5028 67.632C38.1348 67.632 39.3614 68.176 40.1828 69.264C41.0148 70.3413 41.4308 71.7813 41.4308 73.584C41.4308 75.344 41.0201 76.784 40.1987 77.904Z" fill="url(#paint6_linear_31_17)"/>
<path fill-rule="evenodd" clip-rule="evenodd" d="M56.6427 82.72C54.9147 82.72 53.4161 82.3307 52.1467 81.552C50.8774 80.7733 49.8961 79.7013 49.2027 78.336C48.5201 76.96 48.1787 75.376 48.1787 73.584C48.1787 71.7813 48.5308 70.1973 49.2347 68.832C49.9387 67.456 50.9254 66.3893 52.1947 65.632C53.4641 64.864 54.9468 64.48 56.6427 64.48C58.3708 64.48 59.8694 64.8693 61.1387 65.648C62.4081 66.4267 63.3894 67.4987 64.0827 68.864C64.7761 70.2293 65.1227 71.8027 65.1227 73.584C65.1227 75.3867 64.7707 76.976 64.0667 78.352C63.3734 79.7173 62.3921 80.7893 61.1227 81.568C59.8534 82.336 58.3601 82.72 56.6427 82.72ZM56.6427 79.568C58.2961 79.568 59.5281 79.0133 60.3387 77.904C61.1601 76.784 61.5708 75.344 61.5708 73.584C61.5708 71.7813 61.1548 70.3413 60.3228 69.264C59.5014 68.176 58.2747 67.632 56.6427 67.632C55.5228 67.632 54.6001 67.888 53.8747 68.4C53.1494 68.9013 52.6107 69.6 52.2587 70.496C51.9067 71.3813 51.7307 72.4107 51.7307 73.584C51.7307 75.3973 52.1467 76.848 52.9787 77.936C53.8107 79.024 55.0321 79.568 56.6427 79.568Z" fill="url(#paint7_linear_31_17)"/>
<path d="M84.0147 76.32L72.6707 59.2H69.2787V82.24H72.6707V65.104L84.0147 82.24H87.4067V59.2H84.0147V76.32Z" fill="#060606"/>
<path fill-rule="evenodd" clip-rule="evenodd" d="M100.176 82.72C98.4592 82.72 96.9498 82.3467 95.6485 81.6C94.3578 80.8427 93.3498 79.792 92.6245 78.448C91.9098 77.0933 91.5525 75.5253 91.5525 73.744C91.5525 71.856 91.9045 70.2187 92.6085 68.832C93.3232 67.4453 94.3152 66.3733 95.5845 65.616C96.8538 64.8587 98.3312 64.48 100.016 64.48C101.776 64.48 103.275 64.8907 104.512 65.712C105.75 66.5227 106.673 67.68 107.281 69.184C107.899 70.688 108.145 72.4747 108.017 74.544H95.1421C95.2623 75.9936 95.6711 77.1509 96.3685 78.016C97.2112 79.0507 98.4272 79.568 100.016 79.568C101.062 79.568 101.963 79.3333 102.72 78.864C103.488 78.384 104.086 77.7013 104.512 76.816L107.792 77.856C107.12 79.4027 106.102 80.6027 104.736 81.456C103.371 82.2987 101.851 82.72 100.176 82.72ZM103.521 68.88C104.082 69.6026 104.439 70.6212 104.59 71.936H95.2176C95.3943 70.7348 95.7779 69.7641 96.3685 69.024C97.2112 67.968 98.4698 67.44 100.145 67.44C101.659 67.44 102.785 67.92 103.521 68.88Z" fill="#060606"/>
<path d="M118.934 82.512C119.98 82.544 121.046 82.4533 122.134 82.24V79.408C121.004 79.568 120.017 79.6053 119.174 79.52C118.342 79.424 117.734 79.0453 117.35 78.384C117.148 78.032 117.036 77.6 117.014 77.088C117.004 76.576 116.998 75.9733 116.998 75.28V67.648H122.134V64.96H116.998V60.16H113.638V64.96H110.326V67.648H113.638V75.44C113.638 76.3787 113.649 77.2213 113.67 77.968C113.702 78.704 113.905 79.4293 114.278 80.144C114.694 80.944 115.313 81.5307 116.134 81.904C116.956 82.2773 117.889 82.48 118.934 82.512Z" fill="#060606"/>
<defs>
<linearGradient id="paint0_linear_31_17" x1="71.697" y1="24.224" x2="71.697" y2="38.2661" gradientUnits="userSpaceOnUse">
<stop stop-color="#0243FF"/>
<stop offset="1" stop-color="#0F3DC2"/>
</linearGradient>
<linearGradient id="paint1_linear_31_17" x1="64.5955" y1="4.66486" x2="64.5955" y2="52.4078" gradientUnits="userSpaceOnUse">
<stop stop-color="#0243FF"/>
<stop offset="1" stop-color="#0F3DC2"/>
</linearGradient>
<linearGradient id="paint2_linear_31_17" x1="64.5955" y1="4.66486" x2="64.5955" y2="52.4078" gradientUnits="userSpaceOnUse">
<stop stop-color="#0243FF"/>
<stop offset="1" stop-color="#0F3DC2"/>
</linearGradient>
<linearGradient id="paint3_linear_31_17" x1="57.8927" y1="33.8246" x2="57.8927" y2="36.7501" gradientUnits="userSpaceOnUse">
<stop stop-color="#0243FF"/>
<stop offset="1" stop-color="#0F3DC2"/>
</linearGradient>
<linearGradient id="paint4_linear_31_17" x1="58.5563" y1="12.1501" x2="58.5563" y2="15.0755" gradientUnits="userSpaceOnUse">
<stop stop-color="#0243FF"/>
<stop offset="1" stop-color="#0F3DC2"/>
</linearGradient>
<linearGradient id="paint5_linear_31_17" x1="64.5671" y1="59.2" x2="64.5671" y2="82.72" gradientUnits="userSpaceOnUse">
<stop stop-color="#0243FF"/>
<stop offset="1" stop-color="#0F3DC2"/>
</linearGradient>
<linearGradient id="paint6_linear_31_17" x1="64.5671" y1="59.2" x2="64.5671" y2="82.72" gradientUnits="userSpaceOnUse">
<stop stop-color="#0243FF"/>
<stop offset="1" stop-color="#0F3DC2"/>
</linearGradient>
<linearGradient id="paint7_linear_31_17" x1="64.5671" y1="59.2" x2="64.5671" y2="82.72" gradientUnits="userSpaceOnUse">
<stop stop-color="#0243FF"/>
<stop offset="1" stop-color="#0F3DC2"/>
</linearGradient>
</defs>
</svg>
